<?xml version="1.0" encoding="UTF-8" standalone="no"?>
<!-- Created with Inkscape (http://www.inkscape.org/) -->

<svg
   width="710.55261mm"
   height="279.479mm"
   viewBox="0 0 710.55261 279.479"
   version="1.1"
   id="svg5"
   xml:space="preserve"
   sodipodi:docname="logoplex.svg"
   xmlns:inkscape="http://www.inkscape.org/namespaces/inkscape"
   xmlns:sodipodi="http://sodipodi.sourceforge.net/DTD/sodipodi-0.dtd"
   xmlns="http://www.w3.org/2000/svg"
   xmlns:svg="http://www.w3.org/2000/svg"><sodipodi:namedview
     id="namedview7"
     pagecolor="#ffffff"
     bordercolor="#000000"
     borderopacity="0.25"
     inkscape:showpageshadow="2"
     inkscape:pageopacity="0.0"
     inkscape:pagecheckerboard="0"
     inkscape:deskcolor="#d1d1d1"
     inkscape:document-units="mm"
     showgrid="false" /><defs
     id="defs2"><clipPath
       clipPathUnits="userSpaceOnUse"
       id="clipPath87"><path
         d="m 117.98323,130.05132 14.17342,28.34681 v 14.17342 h -14.17342 v -42.52023"
         id="path85" /></clipPath><clipPath
       clipPathUnits="userSpaceOnUse"
       id="clipPath99"><path
         d="m 137.13803,153.41675 v -42.5202 h -14.17342 v 14.17338 l 14.17342,28.34682"
         id="path97" /></clipPath><clipPath
       clipPathUnits="userSpaceOnUse"
       id="clipPath115"><path
         d="m 117.98323,73.3577 14.17342,28.34681 v 14.17342 H 117.98323 V 73.3577"
         id="path113" /></clipPath><clipPath
       clipPathUnits="userSpaceOnUse"
       id="clipPath127"><path
         d="m 137.13803,96.72313 v -42.5202 h -14.17342 v 14.17338 l 14.17342,28.34682"
         id="path125" /></clipPath></defs><g
     id="g23"
     transform="matrix(0,3.5277778,3.5277776,0,-34.660807,-238.52726)"><g
       id="g641"><g
         id="g25"
         transform="translate(-20.333778,-2.8538637)"><g
           id="g27"><g
             id="g29"><g
               id="g31"
               transform="rotate(90,-1.5295,108.3155)"><g
                 id="g33"><g
                   id="g35"
                   transform="translate(-27.175,-959.822)"><text
                     xml:space="preserve"
                     transform="matrix(1,0,0,-1,27.175,959.822)"
                     style="font-variant:normal;font-weight:normal;font-size:24.7871px;font-family:CMTT12;-inkscape-font-specification:CMTT12;writing-mode:lr-tb;fill:#f0f0f0;fill-opacity:1;fill-rule:nonzero;stroke:none"
                     id="text39"><tspan
                       x="0 12.755442 25.510883 51.031681"
                       y="0"
                       sodipodi:role="line"
                       id="tspan37"
                       style="font-style:normal;font-variant:normal;font-weight:600;font-stretch:normal;font-family:'IBM Plex Mono';-inkscape-font-specification:'IBM Plex Mono Semi-Bold';fill:#f0f0f0;fill-opacity:1">20[]</tspan></text><g
                     id="g41"
                     transform="translate(27.175,959.822)" /></g></g><g
                 id="g43"
                 transform="translate(-106.786,-109.845)" /></g></g><g
             id="g45"><g
               id="g47"
               transform="rotate(-90,160.976,12.644)"><g
                 id="g49"><g
                   id="g51"
                   transform="translate(-68.721,-1023.597)"><text
                     xml:space="preserve"
                     transform="matrix(1,0,0,-1,68.721,1023.597)"
                     style="font-variant:normal;font-weight:normal;font-size:24.7871px;font-family:CMTT12;-inkscape-font-specification:CMTT12;writing-mode:lr-tb;fill:#f0f0f0;fill-opacity:1;fill-rule:nonzero;stroke:none"
                     id="text55"><tspan
                       x="0 12.755442 25.510883 51.031681"
                       y="0"
                       sodipodi:role="line"
                       id="tspan53"
                       style="font-style:normal;font-variant:normal;font-weight:600;font-stretch:normal;font-family:'IBM Plex Mono';-inkscape-font-specification:'IBM Plex Mono Semi-Bold';fill:#f0f0f0;fill-opacity:1">20[]</tspan></text><g
                     id="g57"
                     transform="translate(68.721,1023.597)" /></g></g><g
                 id="g59"
                 transform="translate(-148.332,-173.62)" /></g></g><g
             id="g61"><path
               d="m 99.21382,190.9827 v 17.63325 c 0,2.20095 1.78417,3.98511 3.98511,3.98511 h 13.28989 c 2.20094,0 3.9851,-1.78416 3.9851,-3.98511 v -20.3766 c 0,-2.20095 0,-5.76927 0,-7.97022 v -10.18827"
               style="fill:none;stroke:#f0f0f0;stroke-width:2.98883;stroke-linecap:butt;stroke-linejoin:miter;stroke-miterlimit:10;stroke-dasharray:none;stroke-opacity:1"
               id="path63" /><g
               id="g65"
               transform="rotate(-90,145.09826,45.88444)"><g
                 id="g67"><path
                   d="M 5.87807,0 -3.52684,4.70245 0,0 -3.52684,-4.70245"
                   style="fill:#f0f0f0;fill-opacity:1;fill-rule:nonzero;stroke:none"
                   id="path69" /></g></g></g><g
             id="g71"
             style="display:inline"><path
               d="m 155.90744,190.9827 v 17.63325 c 0,2.20095 -1.78416,3.98511 -3.98511,3.98511 h -13.28988 c -2.20095,0 -3.98511,-1.78416 -3.98511,-3.98511 v -20.3766 c 0,-2.20095 0,-5.76927 0,-7.97022 v -10.18827"
               style="fill:none;stroke:#f0f0f0;stroke-width:2.98883;stroke-linecap:butt;stroke-linejoin:miter;stroke-miterlimit:10;stroke-dasharray:none;stroke-opacity:1"
               id="path73" /><g
               id="g75"
               transform="rotate(-90,173.44507,17.53763)"><g
                 id="g77"><path
                   d="M 5.87807,0 -3.52684,4.70245 0,0 -3.52684,-4.70245"
                   style="fill:#f0f0f0;fill-opacity:1;fill-rule:nonzero;stroke:none"
                   id="path79" /></g></g></g><g
             id="g81"
             style="fill:none;stroke:#f0f0f0;stroke-opacity:1"><g
               id="g83"
               clip-path="url(#clipPath87)"
               style="fill:none;stroke:#f0f0f0;stroke-opacity:1"><g
                 id="g89"
                 style="fill:none;stroke:#f0f0f0;stroke-opacity:1"><path
                   d="m 120.47392,170.08086 v -10.18831 c 0,-2.20095 0.79785,-5.58081 1.78205,-7.54925 l 10.60933,-21.21854 c 0.98419,-1.96842 1.78204,-5.3483 1.78204,-7.54924 v -24.3617"
                   style="fill:none;stroke:#f0f0f0;stroke-width:2.98883;stroke-linecap:butt;stroke-linejoin:miter;stroke-miterlimit:10;stroke-dasharray:none;stroke-opacity:1"
                   id="path91" /></g></g></g><g
             id="g93"
             style="fill:none;stroke:#f0f0f0;stroke-opacity:1"><g
               id="g95"
               clip-path="url(#clipPath99)"
               style="fill:none;stroke:#f0f0f0;stroke-opacity:1"><g
                 id="g101"
                 style="fill:none;stroke:#f0f0f0;stroke-opacity:1"><path
                   d="m 120.47392,170.08086 v -10.18831 c 0,-2.20095 0.79785,-5.58081 1.78205,-7.54925 l 10.60933,-21.21854 c 0.98419,-1.96842 1.78204,-5.3483 1.78204,-7.54924 v -24.3617"
                   style="fill:none;stroke:#f0f0f0;stroke-width:2.98883;stroke-linecap:butt;stroke-linejoin:miter;stroke-miterlimit:10;stroke-dasharray:none;stroke-opacity:1"
                   id="path103" /></g></g></g><g
             id="g105"
             style="fill:none;stroke:#f0f0f0;stroke-opacity:1"><path
               d="m 134.64734,170.08086 v -10.18831 c 0,-2.20095 -0.79785,-5.58081 -1.78204,-7.54925 l -10.60933,-21.21854 c -0.9842,-1.96842 -1.78205,-5.3483 -1.78205,-7.54924 v -10.18828"
               style="fill:none;stroke:#f0f0f0;stroke-width:2.98883;stroke-linecap:butt;stroke-linejoin:miter;stroke-miterlimit:10;stroke-dasharray:none;stroke-opacity:1"
               id="path107" /></g><g
             id="g109"
             style="fill:none;stroke:#f0f0f0;stroke-opacity:1"><g
               id="g111"
               clip-path="url(#clipPath115)"
               style="fill:none;stroke:#f0f0f0;stroke-opacity:1"><g
                 id="g117"
                 style="fill:none;stroke:#f0f0f0;stroke-opacity:1"><path
                   d="m 134.64734,170.08086 v -10.18831 c 0,-2.20095 -0.79785,-5.58081 -1.78204,-7.54925 l -10.60933,-21.21854 c -0.9842,-1.96842 -1.78205,-5.3483 -1.78205,-7.54924 v -20.37659 c 0,-2.20094 0.79785,-5.58081 1.78205,-7.54924 L 132.8653,74.43114 c 0.98419,-1.96842 1.78204,-5.3483 1.78204,-7.54924 V 56.69362"
                   style="fill:none;stroke:#f0f0f0;stroke-width:2.98883;stroke-linecap:butt;stroke-linejoin:miter;stroke-miterlimit:10;stroke-dasharray:none;stroke-opacity:1"
                   id="path119" /></g></g></g><g
             id="g121"
             style="fill:none;stroke:#f0f0f0;stroke-opacity:1"><g
               id="g123"
               clip-path="url(#clipPath127)"
               style="fill:none;stroke:#f0f0f0;stroke-opacity:1"><g
                 id="g129"
                 style="fill:none;stroke:#f0f0f0;stroke-opacity:1"><path
                   d="m 134.64734,170.08086 v -10.18831 c 0,-2.20095 -0.79785,-5.58081 -1.78204,-7.54925 l -10.60933,-21.21854 c -0.9842,-1.96842 -1.78205,-5.3483 -1.78205,-7.54924 v -20.37659 c 0,-2.20094 0.79785,-5.58081 1.78205,-7.54924 L 132.8653,74.43114 c 0.98419,-1.96842 1.78204,-5.3483 1.78204,-7.54924 V 56.69362"
                   style="fill:none;stroke:#f0f0f0;stroke-width:2.98883;stroke-linecap:butt;stroke-linejoin:miter;stroke-miterlimit:10;stroke-dasharray:none;stroke-opacity:1"
                   id="path131" /></g></g></g><g
             id="g133"
             style="fill:none;stroke:#f0f0f0;stroke-opacity:1"><path
               d="m 134.64734,113.38724 v -10.18831 c 0,-2.20094 -0.79785,-5.58081 -1.78204,-7.54924 L 122.25597,74.43114 c -0.9842,-1.96842 -1.78205,-5.3483 -1.78205,-7.54924 V 56.69362"
               style="fill:none;stroke:#f0f0f0;stroke-width:2.98883;stroke-linecap:butt;stroke-linejoin:miter;stroke-miterlimit:10;stroke-dasharray:none;stroke-opacity:1"
               id="path135" /></g><g
             id="g137"
             style="fill:none;stroke:#f0f0f0;stroke-opacity:1"><path
               d="M 134.64734,56.69362 V 18.1585 c 0,-2.20095 1.78416,-3.98511 3.98511,-3.98511 h 13.28988 c 2.20095,0 3.98511,1.78416 3.98511,3.98511 v 81.05532"
               style="fill:none;stroke:#f0f0f0;stroke-width:2.98883;stroke-linecap:butt;stroke-linejoin:miter;stroke-miterlimit:10;stroke-dasharray:none;stroke-opacity:1"
               id="path139" /></g><g
             id="g141"
             style="fill:none;stroke:#f0f0f0;stroke-opacity:1"><path
               d="M 120.47392,56.69362 V 18.1585 c 0,-2.20095 -1.78416,-3.98511 -3.9851,-3.98511 h -13.28989 c -2.20094,0 -3.98511,1.78416 -3.98511,3.98511 v 81.05532"
               style="fill:none;stroke:#f0f0f0;stroke-width:2.98883;stroke-linecap:butt;stroke-linejoin:miter;stroke-miterlimit:10;stroke-dasharray:none;stroke-opacity:1"
               id="path143" /></g></g></g></g><g
       id="g145"
       transform="translate(82.932,12.679)"
       style="display:inline" /></g></svg>
