<?xml version="1.0" encoding="utf-8"?>
<!-- Generator: Adobe Illustrator 27.5.0, SVG Export Plug-In . SVG Version: 6.00 Build 0)  -->
<svg version="1.1" id="Layer_1" xmlns="http://www.w3.org/2000/svg" xmlns:xlink="http://www.w3.org/1999/xlink" x="0px" y="0px"
	 viewBox="0 0 2014.16 792.22" style="enable-background:new 0 0 2014.16 792.22;" xml:space="preserve">
<style type="text/css">
	.st0{fill:#F0F0F0;}
	.st1{fill:none;stroke:#F0F0F0;stroke-width:29.8883;stroke-miterlimit:10;}
	.st2{clip-path:url(#SVGID_00000068666686511694746580000006588398631898674561_);}
	.st3{clip-path:url(#SVGID_00000182504629314998449400000006009028019650343040_);}
	
		.st4{clip-path:url(#SVGID_00000117637550810047322010000016279070114311108524_);fill:none;stroke:#F0F0F0;stroke-width:29.8883;stroke-miterlimit:10;}
	.st5{clip-path:url(#SVGID_00000089548005509350209430000006268404650454743206_);}
	.st6{clip-path:url(#SVGID_00000115482124098089538290000017279323522173815469_);}
	
		.st7{clip-path:url(#SVGID_00000137811464835614425340000007923972467796190347_);fill:none;stroke:#F0F0F0;stroke-width:29.8883;stroke-miterlimit:10;}
	.st8{clip-path:url(#SVGID_00000140002700081366034620000014854825649865139353_);}
	.st9{clip-path:url(#SVGID_00000140010654072247744420000004261740643168691893_);}
	
		.st10{clip-path:url(#SVGID_00000096755863274983318240000013023809083609956279_);fill:none;stroke:#F0F0F0;stroke-width:29.8883;stroke-miterlimit:10;}
	.st11{clip-path:url(#SVGID_00000062172908133617582660000000873074577701879708_);}
	.st12{clip-path:url(#SVGID_00000090282661642889963060000008109516579042588800_);}
	
		.st13{clip-path:url(#SVGID_00000072960758306668688500000001716897712396624793_);fill:none;stroke:#F0F0F0;stroke-width:29.8883;stroke-miterlimit:10;}
</style>
<g>
	<path class="st0" d="M1107.99,188.38H986.04v-30.24l55.52-47.34c18.34-15.86,27.26-28.01,27.26-42.63v-2.48
		c0-16.36-9.91-25.28-26.27-25.28c-18.09,0-27.02,11.4-31.23,25.78l-28.26-10.66c7.44-22.8,26.27-43.13,62.21-43.13
		c36.93,0,58,21.56,58,51.31c0,28.26-19.08,46.85-44.12,66.92l-37.68,30.49h86.5V188.38z"/>
	<path class="st0" d="M1108.48,101.88c0-56.51,20.33-89.48,65.44-89.48s65.44,32.97,65.44,89.48c0,56.51-20.32,89.48-65.44,89.48
		S1108.48,158.39,1108.48,101.88z M1206.39,117.25V86.51c0-29.74-8.67-48.09-32.47-48.09s-32.47,18.34-32.47,48.09v30.74
		c0,29.74,8.68,48.08,32.47,48.08S1206.39,146.99,1206.39,117.25z M1158.55,104.6v-5.45c0-6.69,3.97-11.9,15.37-11.9
		c11.4,0,15.37,5.21,15.37,11.9v5.45c0,6.69-3.97,11.9-15.37,11.9C1162.52,116.5,1158.55,111.3,1158.55,104.6z"/>
	<path class="st0" d="M1275.54,222.59V0.01h77.09v21.81h-51.31v178.96h51.31v21.81H1275.54z"/>
	<path class="st0" d="M1582.9,0.01v222.58h-77.09v-21.81h51.31V21.82h-51.31V0.01H1582.9z"/>
</g>
<g>
	<path class="st0" d="M1473.08,603.84h121.95v30.24l-55.52,47.34c-18.34,15.86-27.26,28.01-27.26,42.63v2.48
		c0,16.36,9.91,25.28,26.27,25.28c18.09,0,27.02-11.4,31.23-25.78l28.26,10.66c-7.44,22.8-26.27,43.13-62.21,43.13
		c-36.93,0-58-21.56-58-51.31c0-28.26,19.08-46.85,44.12-66.92l37.68-30.49h-86.5V603.84z"/>
	<path class="st0" d="M1472.59,690.35c0,56.51-20.33,89.48-65.44,89.48s-65.44-32.97-65.44-89.48c0-56.51,20.32-89.48,65.44-89.48
		S1472.59,633.83,1472.59,690.35z M1374.68,674.98v30.74c0,29.74,8.67,48.09,32.47,48.09s32.47-18.34,32.47-48.09v-30.74
		c0-29.74-8.68-48.08-32.47-48.08S1374.68,645.24,1374.68,674.98z M1422.52,687.62v5.45c0,6.69-3.97,11.9-15.37,11.9
		c-11.4,0-15.37-5.21-15.37-11.9v-5.45c0-6.69,3.97-11.9,15.37-11.9C1418.55,675.72,1422.52,680.93,1422.52,687.62z"/>
	<path class="st0" d="M1305.53,569.64v222.58h-77.09v-21.81h51.31V591.45h-51.31v-21.81H1305.53z"/>
	<path class="st0" d="M998.17,792.22V569.64h77.09v21.81h-51.31v178.96h51.31v21.81H998.17z"/>
</g>
<path class="st1" d="M1783.04,112.66h176.33c22.01,0,39.85,17.84,39.85,39.85v132.9c0,22.01-17.84,39.85-39.85,39.85h-203.77
	c-22.01,0-57.7,0-79.7,0h-101.88"/>
<polyline class="st0" points="1724.26,112.66 1818.31,159.68 1783.04,112.66 1818.31,65.64 "/>
<path class="st1" d="M1783.04,679.6h176.33c22.01,0,39.85-17.84,39.85-39.85v-132.9c0-22.01-17.84-39.85-39.85-39.85h-203.77
	c-22.01,0-57.7,0-79.7,0h-101.88"/>
<polyline class="st0" points="1724.26,679.6 1818.31,726.62 1783.04,679.6 1818.31,632.57 "/>
<g>
	<defs>
		<rect id="SVGID_1_" x="1173" y="300" width="426" height="143"/>
	</defs>
	<clipPath id="SVGID_00000118364466105216774130000015206278563030389388_">
		<use xlink:href="#SVGID_1_"  style="overflow:visible;"/>
	</clipPath>
	<g style="clip-path:url(#SVGID_00000118364466105216774130000015206278563030389388_);">
		<defs>
			<polyline id="SVGID_00000009549868920854158580000004891928746004346810_" points="1173.72,300.36 1457.19,442.09 
				1598.93,442.09 1598.93,300.36 1173.72,300.36 			"/>
		</defs>
		<clipPath id="SVGID_00000034802418545161832260000016807960477819772079_">
			<use xlink:href="#SVGID_00000009549868920854158580000004891928746004346810_"  style="overflow:visible;"/>
		</clipPath>
		<g style="clip-path:url(#SVGID_00000034802418545161832260000016807960477819772079_);">
			<defs>
				<rect id="SVGID_00000168816595918352668690000005451687019370066870_" width="2015" height="793"/>
			</defs>
			<clipPath id="SVGID_00000043454104556525214920000016040956257544865195_">
				<use xlink:href="#SVGID_00000168816595918352668690000005451687019370066870_"  style="overflow:visible;"/>
			</clipPath>
			
				<path style="clip-path:url(#SVGID_00000043454104556525214920000016040956257544865195_);fill:none;stroke:#F0F0F0;stroke-width:29.8883;stroke-miterlimit:10;" d="
				M1574.02,325.26h-101.88c-22.01,0-55.81,7.98-75.49,17.82l-212.19,106.09c-19.68,9.84-53.48,17.82-75.49,17.82H865.35"/>
		</g>
	</g>
</g>
<g>
	<defs>
		<rect id="SVGID_00000134207277836074480150000015259673665316874150_" x="982" y="350" width="426" height="142"/>
	</defs>
	<clipPath id="SVGID_00000049902425985372286280000018013490258092721335_">
		<use xlink:href="#SVGID_00000134207277836074480150000015259673665316874150_"  style="overflow:visible;"/>
	</clipPath>
	<g style="clip-path:url(#SVGID_00000049902425985372286280000018013490258092721335_);">
		<defs>
			<polyline id="SVGID_00000096059390833536359350000013644608564272422784_" points="1407.38,491.9 982.18,491.9 982.18,350.17 
				1123.91,350.17 1407.38,491.9 			"/>
		</defs>
		<clipPath id="SVGID_00000114794758572691895520000004539361729256278418_">
			<use xlink:href="#SVGID_00000096059390833536359350000013644608564272422784_"  style="overflow:visible;"/>
		</clipPath>
		<g style="clip-path:url(#SVGID_00000114794758572691895520000004539361729256278418_);">
			<defs>
				<rect id="SVGID_00000039827689799095987540000007793011241329416080_" width="2015" height="793"/>
			</defs>
			<clipPath id="SVGID_00000144325167474385749190000013872575046304552885_">
				<use xlink:href="#SVGID_00000039827689799095987540000007793011241329416080_"  style="overflow:visible;"/>
			</clipPath>
			
				<path style="clip-path:url(#SVGID_00000144325167474385749190000013872575046304552885_);fill:none;stroke:#F0F0F0;stroke-width:29.8883;stroke-miterlimit:10;" d="
				M1574.02,325.26h-101.88c-22.01,0-55.81,7.98-75.49,17.82l-212.19,106.09c-19.68,9.84-53.48,17.82-75.49,17.82H865.35"/>
		</g>
	</g>
</g>
<path class="st1" d="M1574.02,467h-101.88c-22.01,0-55.81-7.98-75.49-17.82l-212.19-106.09c-19.68-9.84-53.48-17.82-75.49-17.82
	h-101.88"/>
<g>
	<defs>
		<rect id="SVGID_00000130632026093087676840000010443759729638482092_" x="606" y="300" width="426" height="143"/>
	</defs>
	<clipPath id="SVGID_00000116216819510175508740000017780801973563540354_">
		<use xlink:href="#SVGID_00000130632026093087676840000010443759729638482092_"  style="overflow:visible;"/>
	</clipPath>
	<g style="clip-path:url(#SVGID_00000116216819510175508740000017780801973563540354_);">
		<defs>
			<polyline id="SVGID_00000137812739930765208650000006199493279661572773_" points="606.79,300.36 890.25,442.09 1031.99,442.09 
				1031.99,300.36 606.79,300.36 			"/>
		</defs>
		<clipPath id="SVGID_00000122705606097498085480000017926595442281732270_">
			<use xlink:href="#SVGID_00000137812739930765208650000006199493279661572773_"  style="overflow:visible;"/>
		</clipPath>
		<g style="clip-path:url(#SVGID_00000122705606097498085480000017926595442281732270_);">
			<defs>
				<rect id="SVGID_00000089553783500481125160000018183014063194043029_" width="2015" height="793"/>
			</defs>
			<clipPath id="SVGID_00000173841849591687880400000014405445759171196805_">
				<use xlink:href="#SVGID_00000089553783500481125160000018183014063194043029_"  style="overflow:visible;"/>
			</clipPath>
			
				<path style="clip-path:url(#SVGID_00000173841849591687880400000014405445759171196805_);fill:none;stroke:#F0F0F0;stroke-width:29.8883;stroke-miterlimit:10;" d="
				M1574.02,467h-101.88c-22.01,0-55.81-7.98-75.49-17.82l-212.19-106.09c-19.68-9.84-53.48-17.82-75.49-17.82H905.2
				c-22.01,0-55.81,7.98-75.49,17.82L617.52,449.18c-19.69,9.84-53.48,17.82-75.5,17.82H440.14"/>
		</g>
	</g>
</g>
<g>
	<defs>
		<rect id="SVGID_00000090996086708639707930000013370537088314656171_" x="415" y="350" width="426" height="142"/>
	</defs>
	<clipPath id="SVGID_00000094590359675840315580000013344003917705541504_">
		<use xlink:href="#SVGID_00000090996086708639707930000013370537088314656171_"  style="overflow:visible;"/>
	</clipPath>
	<g style="clip-path:url(#SVGID_00000094590359675840315580000013344003917705541504_);">
		<defs>
			<polyline id="SVGID_00000180341106950270679210000004952478368229580416_" points="840.44,491.9 415.24,491.9 415.24,350.17 
				556.97,350.17 840.44,491.9 			"/>
		</defs>
		<clipPath id="SVGID_00000096039383076298693970000017988944001854287500_">
			<use xlink:href="#SVGID_00000180341106950270679210000004952478368229580416_"  style="overflow:visible;"/>
		</clipPath>
		<g style="clip-path:url(#SVGID_00000096039383076298693970000017988944001854287500_);">
			<defs>
				<rect id="SVGID_00000111181855842758947370000006413527533948129667_" width="2015" height="793"/>
			</defs>
			<clipPath id="SVGID_00000016783196432862569590000000639291789367041157_">
				<use xlink:href="#SVGID_00000111181855842758947370000006413527533948129667_"  style="overflow:visible;"/>
			</clipPath>
			
				<path style="clip-path:url(#SVGID_00000016783196432862569590000000639291789367041157_);fill:none;stroke:#F0F0F0;stroke-width:29.8883;stroke-miterlimit:10;" d="
				M1574.02,467h-101.88c-22.01,0-55.81-7.98-75.49-17.82l-212.19-106.09c-19.68-9.84-53.48-17.82-75.49-17.82H905.2
				c-22.01,0-55.81,7.98-75.49,17.82L617.52,449.18c-19.69,9.84-53.48,17.82-75.5,17.82H440.14"/>
		</g>
	</g>
</g>
<path class="st1" d="M1007.08,467H905.2c-22.01,0-55.81-7.98-75.49-17.82L617.52,343.08c-19.69-9.84-53.48-17.82-75.5-17.82H440.14"
	/>
<path class="st1" d="M440.14,467H54.8c-22.01,0-39.85,17.84-39.85,39.85v132.9c0,22.01,17.84,39.85,39.85,39.85h810.55"/>
<path class="st1" d="M440.14,325.26H54.8c-22.01,0-39.85-17.84-39.85-39.85v-132.9c0-22.01,17.84-39.85,39.85-39.85h810.55"/>
</svg>
